<svg width="1060" height="949" viewBox="0 0 1060 949" fill="none" xmlns="http://www.w3.org/2000/svg">
<g opacity="0.4" filter="url(#filter0_f_406_12908)">
<rect x="227.91" y="572" width="604.178" height="267" rx="130" fill="url(#paint0_linear_406_12908)"/>
</g>
<mask id="mask0_406_12908" style="mask-type:alpha" maskUnits="userSpaceOnUse" x="-50" y="0" width="1160" height="719">
<rect x="-49.2363" width="1158.47" height="719" fill="url(#paint1_radial_406_12908)" fill-opacity="0.5"/>
</mask>
<g mask="url(#mask0_406_12908)">
<path d="M-125.426 173.569C-86.3156 50.865 59.807 -154.819 331.416 4.07861C603.024 162.976 1008.77 -70.9561 1177.7 -207.784" stroke="#e5e5e5" stroke-opacity="0.3"/>
<path d="M-125.426 215.334C-86.3156 92.6304 59.807 -113.053 331.416 45.844C603.024 204.741 1008.77 -29.1907 1177.7 -166.019" stroke="#e5e5e5" stroke-opacity="0.3"/>
<path d="M-125.426 257.1C-86.3156 134.396 59.807 -71.2873 331.416 87.6099C603.024 246.507 1008.77 12.5751 1177.7 -124.253" stroke="#e5e5e5" stroke-opacity="0.3"/>
<path d="M-125.426 298.865C-86.3156 176.161 59.807 -29.5226 331.416 129.375C603.024 288.272 1008.77 54.3398 1177.7 -82.4883" stroke="#e5e5e5" stroke-opacity="0.3"/>
<path d="M-125.426 340.63C-86.3156 217.927 59.807 12.243 331.416 171.14C603.024 330.037 1008.77 96.1054 1177.7 -40.7227" stroke="#e5e5e5" stroke-opacity="0.3"/>
<path d="M-125.426 382.396C-86.3156 259.692 59.807 54.0086 331.416 212.906C603.024 371.803 1008.77 137.871 1177.7 1.04297" stroke="#e5e5e5" stroke-opacity="0.3"/>
<path d="M-125.426 424.162C-86.3156 301.458 59.807 95.7743 331.416 254.671C603.024 413.569 1008.77 179.637 1177.7 42.8086" stroke="#e5e5e5" stroke-opacity="0.3"/>
<path d="M-125.426 465.927C-86.3156 343.223 59.807 137.54 331.416 296.437C603.024 455.334 1008.77 221.402 1177.7 84.5742" stroke="#e5e5e5" stroke-opacity="0.3"/>
<path d="M-125.426 507.693C-86.3156 384.989 59.807 179.306 331.416 338.203C603.024 497.1 1008.77 263.168 1177.7 126.34" stroke="#e5e5e5" stroke-opacity="0.3"/>
<path d="M-125.426 549.458C-86.3156 426.754 59.807 221.07 331.416 379.967C603.024 538.864 1008.77 304.933 1177.7 168.104" stroke="#e5e5e5" stroke-opacity="0.3"/>
<path d="M-125.426 591.223C-86.3156 468.519 59.807 262.836 331.416 421.733C603.024 580.63 1008.77 346.698 1177.7 209.87" stroke="#e5e5e5" stroke-opacity="0.3"/>
<path d="M-125.426 632.989C-86.3156 510.285 59.807 304.601 331.416 463.498C603.024 622.395 1008.77 388.464 1177.7 251.635" stroke="#e5e5e5" stroke-opacity="0.3"/>
<path d="M-125.426 674.754C-86.3156 552.05 59.807 346.367 331.416 505.264C603.024 664.161 1008.77 430.229 1177.7 293.401" stroke="#e5e5e5" stroke-opacity="0.3"/>
<path d="M-125.426 716.52C-86.3156 593.816 59.807 388.132 331.416 547.029C603.024 705.926 1008.77 471.994 1177.7 335.166" stroke="#e5e5e5" stroke-opacity="0.3"/>
<path d="M-125.426 758.285C-86.3156 635.581 59.807 429.898 331.416 588.795C603.024 747.692 1008.77 513.76 1177.7 376.932" stroke="#e5e5e5" stroke-opacity="0.3"/>
<path d="M-125.426 800.051C-86.3156 677.347 59.807 471.663 331.416 630.56C603.024 789.457 1008.77 555.525 1177.7 418.697" stroke="#e5e5e5" stroke-opacity="0.3"/>
<path d="M-125.426 841.816C-86.3156 719.112 59.807 513.429 331.416 672.326C603.024 831.223 1008.77 597.291 1177.7 460.463" stroke="#e5e5e5" stroke-opacity="0.3"/>
<path d="M-125.426 883.582C-86.3156 760.878 59.807 555.194 331.416 714.091C603.024 872.988 1008.77 639.056 1177.7 502.228" stroke="#e5e5e5" stroke-opacity="0.3"/>
<path d="M-125.426 925.347C-86.3156 802.643 59.807 596.96 331.416 755.857C603.024 914.754 1008.77 680.822 1177.7 543.994" stroke="#e5e5e5" stroke-opacity="0.3"/>
<path d="M-125.426 967.113C-86.3156 844.409 59.807 638.725 331.416 797.622C603.024 956.519 1008.77 722.587 1177.7 585.759" stroke="#e5e5e5" stroke-opacity="0.3"/>
<path d="M-125.426 1008.88C-86.3156 886.174 59.807 680.491 331.416 839.388C603.024 998.285 1008.77 764.353 1177.7 627.525" stroke="#e5e5e5" stroke-opacity="0.3"/>
</g>
<defs>
<filter id="filter0_f_406_12908" x="117.91" y="462" width="824.178" height="487" filterUnits="userSpaceOnUse" color-interpolation-filters="sRGB">
<feFlood flood-opacity="0" result="BackgroundImageFix"/>
<feBlend mode="normal" in="SourceGraphic" in2="BackgroundImageFix" result="shape"/>
<feGaussianBlur stdDeviation="55" result="effect1_foregroundBlur_406_12908"/>
</filter>
<linearGradient id="paint0_linear_406_12908" x1="197.366" y1="655.859" x2="872.057" y2="737.244" gradientUnits="userSpaceOnUse">
<stop stop-color="#4a90e2"/>
<stop offset="0.385" stop-color="#7b68ee"/>
<stop offset="0.715" stop-color="#9370db"/>
<stop offset="1" stop-color="#ba55d3" stop-opacity="0.8"/>
</linearGradient>
<radialGradient id="paint1_radial_406_12908" cx="0" cy="0" r="1" gradientUnits="userSpaceOnUse" gradientTransform="translate(545.52 548.193) rotate(-16.3062) scale(354.564 254.11)">
<stop stop-color="#e5e5e5" stop-opacity="0.2"/>
<stop offset="0.24" stop-color="#d1d1d1" stop-opacity="0.25"/>
<stop offset="0.585" stop-color="#b3b3b3" stop-opacity="0.1"/>
<stop offset="1" stop-color="#999999" stop-opacity="0"/>
</radialGradient>
</defs>
</svg>